<svg width="499" height="376" viewBox="0 0 499 376" fill="none" xmlns="http://www.w3.org/2000/svg">
<path d="M0 0H501V368H100C44.7715 368 0 323.228 0 268V0Z" fill="#FAFAFA"/>
<path d="M263.683 178.044C263.699 172.233 264.293 167.634 265.466 164.248C266.639 160.862 269.076 157.092 272.778 152.937L282.232 142.915C286.268 138.219 288.248 133.21 288.173 127.889C288.1 122.762 286.701 118.778 283.975 115.935C281.249 113.043 277.322 111.634 272.196 111.706C267.216 111.776 263.231 113.151 260.241 115.83C257.251 118.51 255.788 122.071 255.85 126.514L242.302 126.705C242.288 118.794 245.005 112.383 250.454 107.472C255.951 102.511 263.142 99.9676 272.028 99.8421C281.256 99.7119 288.468 102.101 293.665 107.008C298.91 111.866 301.593 118.616 301.715 127.258C301.836 135.802 298 144.28 290.208 152.691L282.337 160.713C278.828 164.718 277.127 170.432 277.231 177.853L263.683 178.044ZM263.425 201.268C263.394 199.071 264.027 197.23 265.325 195.747C266.67 194.214 268.661 193.429 271.298 193.392C273.934 193.355 275.947 194.083 277.335 195.578C278.723 197.023 279.432 198.844 279.463 201.041C279.494 203.238 278.837 205.079 277.49 206.563C276.143 207.998 274.151 208.734 271.515 208.771C268.878 208.809 266.867 208.129 265.48 206.732C264.141 205.286 263.456 203.465 263.425 201.268Z" fill="#564BAA"/>
<path d="M164.874 231.75C162.058 228.05 160.2 224.839 159.3 222.118C158.399 219.396 158.115 215.816 158.447 211.377L159.581 200.413C159.862 195.468 158.686 191.323 156.051 187.978C153.513 184.756 150.687 182.905 147.573 182.424C144.435 181.912 141.255 182.926 138.033 185.464C134.903 187.929 133.04 190.74 132.442 193.896C131.845 197.051 132.647 200.025 134.846 202.818L126.331 209.526C122.477 204.506 121.086 199.112 122.161 193.343C123.242 187.519 126.574 182.407 132.159 178.007C137.958 173.439 143.702 171.45 149.389 172.042C155.083 172.579 160.07 175.563 164.348 180.994C168.578 186.364 170.263 193.615 169.401 202.747L168.3 211.671C168.018 215.921 169.714 220.378 173.389 225.042L164.874 231.75ZM176 246.63C174.912 245.25 174.42 243.773 174.523 242.199C174.633 240.571 175.516 239.105 177.173 237.799C178.83 236.494 180.463 235.978 182.071 236.253C183.656 236.497 184.992 237.309 186.079 238.69C187.167 240.07 187.644 241.56 187.51 243.157C187.352 244.724 186.444 246.16 184.787 247.465C183.13 248.77 181.522 249.316 179.962 249.103C178.408 248.836 177.087 248.011 176 246.63Z" fill="#564BAA"/>
<path d="M363.873 235.375C366.445 231.502 368.869 228.694 371.144 226.95C373.42 225.206 376.709 223.763 381.011 222.621L391.74 220.097C396.504 218.74 400.034 216.269 402.329 212.682C404.54 209.228 405.362 205.951 404.795 202.852C404.249 199.719 402.249 197.048 398.794 194.837C395.438 192.689 392.172 191.85 388.995 192.321C385.818 192.792 383.271 194.525 381.355 197.519L372.225 191.675C375.702 186.388 380.342 183.305 386.145 182.427C392.001 181.538 397.923 183.009 403.911 186.842C410.129 190.822 413.892 195.595 415.198 201.162C416.559 206.717 415.376 212.406 411.649 218.23C407.963 223.987 401.666 227.957 392.756 230.139L383.966 232.026C379.858 233.153 376.204 236.218 373.003 241.219L363.873 235.375ZM353.466 250.767C354.413 249.286 355.647 248.337 357.167 247.918C358.741 247.488 360.416 247.841 362.193 248.978C363.97 250.116 364.992 251.489 365.261 253.098C365.55 254.675 365.221 256.204 364.273 257.684C363.326 259.165 362.076 260.104 360.523 260.501C358.991 260.866 357.336 260.479 355.56 259.342C353.783 258.205 352.74 256.865 352.429 255.321C352.173 253.765 352.518 252.247 353.466 250.767Z" fill="#564BAA"/>
<path d="M397.953 284.056C402.116 281.986 405.619 280.764 408.461 280.391C411.303 280.018 414.873 280.411 419.17 281.572L429.725 284.747C434.53 285.952 438.822 285.575 442.603 283.616C446.244 281.729 448.594 279.301 449.651 276.333C450.743 273.347 450.346 270.033 448.458 266.392C446.625 262.854 444.215 260.496 441.227 259.316C438.24 258.137 435.169 258.365 432.013 260.001L427.024 250.377C432.679 247.534 438.238 247.182 443.703 249.322C449.22 251.478 453.614 255.712 456.886 262.024C460.283 268.579 461.157 274.593 459.507 280.068C457.909 285.56 454.042 289.897 447.903 293.078C441.834 296.224 434.395 296.516 425.588 293.953L417.03 291.195C412.909 290.119 408.213 290.947 402.941 293.68L397.953 284.056ZM381.246 292.187C382.807 291.378 384.35 291.172 385.876 291.569C387.454 291.983 388.729 293.126 389.7 294.999C390.67 296.872 390.87 298.572 390.298 300.101C389.761 301.611 388.712 302.77 387.151 303.579C385.591 304.388 384.038 304.577 382.495 304.145C380.986 303.695 379.746 302.534 378.775 300.661C377.804 298.788 377.57 297.106 378.073 295.613C378.628 294.138 379.686 292.996 381.246 292.187Z" fill="#564BAA"/>
<path d="M130.11 283.768C125.881 281.838 122.726 279.886 120.646 277.914C118.566 275.941 116.623 272.92 114.818 268.851L110.636 258.653C108.546 254.162 105.55 251.066 101.647 249.363C97.8877 247.724 94.5222 247.428 91.5508 248.476C88.5436 249.508 86.2201 251.904 84.5804 255.663C82.9875 259.315 82.6737 262.673 83.6389 265.736C84.6042 268.799 86.7159 271.042 89.9742 272.463L85.6406 282.399C79.8714 279.797 76.0968 275.7 74.3168 270.108C72.5165 264.465 73.0376 258.385 75.8798 251.868C78.8313 245.101 82.953 240.634 88.2449 238.468C93.5165 236.25 99.3211 236.523 105.659 239.287C111.924 242.02 116.836 247.614 120.393 256.069L123.64 264.453C125.4 268.332 129.001 271.458 134.444 273.832L130.11 283.768ZM146.948 291.623C145.337 290.92 144.205 289.851 143.553 288.416C142.88 286.929 142.965 285.219 143.808 283.286C144.652 281.352 145.847 280.126 147.394 279.608C148.906 279.074 150.467 279.158 152.078 279.861C153.689 280.564 154.813 281.651 155.45 283.122C156.051 284.577 155.93 286.272 155.087 288.205C154.244 290.139 153.084 291.38 151.609 291.93C150.113 292.428 148.559 292.326 146.948 291.623Z" fill="#564BAA"/>
<path opacity="0.8" d="M368.5 365.501C368.5 191 171 192 171 365.501H274.5C305.087 365.631 368.5 365.501 368.5 365.501Z" fill="#45AADB"/>
<path d="M222.981 214.909C221.849 212.023 221.241 209.626 221.159 207.717C221.076 205.807 221.545 203.459 222.566 200.673L225.289 193.848C226.369 190.727 226.369 187.855 225.287 185.23C224.246 182.702 222.77 181 220.861 180.125C218.941 179.226 216.717 179.297 214.189 180.339C211.733 181.351 210.027 182.814 209.069 184.729C208.112 186.645 208.085 188.698 208.988 190.889L202.306 193.642C200.747 189.721 200.837 186.008 202.576 182.504C204.329 178.965 207.396 176.293 211.779 174.488C216.33 172.613 220.375 172.383 223.915 173.797C227.469 175.178 230.124 177.999 231.88 182.261C233.616 186.474 233.377 191.431 231.162 197.132L228.832 202.654C227.878 205.329 228.155 208.496 229.663 212.156L222.981 214.909ZM227.409 226.477C226.962 225.393 226.915 224.357 227.268 223.366C227.635 222.342 228.468 221.562 229.768 221.027C231.069 220.491 232.209 220.457 233.191 220.926C234.163 221.371 234.872 222.135 235.318 223.218C235.765 224.302 235.8 225.344 235.423 226.344C235.037 227.32 234.193 228.076 232.893 228.611C231.593 229.147 230.462 229.205 229.5 228.784C228.552 228.329 227.855 227.56 227.409 226.477Z" fill="#564BAA"/>
<path opacity="0.8" d="M167.981 136.909C166.849 134.023 166.241 131.626 166.159 129.717C166.076 127.807 166.545 125.459 167.566 122.673L170.289 115.848C171.369 112.727 171.369 109.855 170.287 107.23C169.246 104.702 167.77 103 165.861 102.125C163.941 101.226 161.717 101.297 159.189 102.339C156.733 103.351 155.027 104.814 154.069 106.729C153.112 108.645 153.085 110.698 153.988 112.889L147.306 115.642C145.747 111.721 145.837 108.008 147.576 104.504C149.329 100.965 152.396 98.2931 156.779 96.4877C161.33 94.6129 165.375 94.3827 168.915 95.7972C172.469 97.1776 175.124 99.9988 176.88 104.261C178.616 108.474 178.377 113.431 176.162 119.132L173.832 124.654C172.878 127.329 173.155 130.496 174.663 134.156L167.981 136.909ZM172.409 148.477C171.962 147.393 171.915 146.357 172.268 145.366C172.635 144.342 173.468 143.562 174.768 143.027C176.069 142.491 177.209 142.457 178.191 142.926C179.163 143.371 179.872 144.135 180.318 145.218C180.765 146.302 180.8 147.344 180.423 148.344C180.037 149.32 179.193 150.076 177.893 150.611C176.593 151.147 175.462 151.205 174.5 150.784C173.552 150.329 172.855 149.56 172.409 148.477Z" fill="#564BAA"/>
<path opacity="0.8" d="M332.171 113.264C333.277 110.368 334.442 108.187 335.667 106.72C336.892 105.253 338.82 103.833 341.451 102.461L348.06 99.2493C350.96 97.6698 352.894 95.5459 353.863 92.8776C354.795 90.3072 354.85 88.0556 354.028 86.1227C353.215 84.1654 351.523 82.7204 348.952 81.7877C346.455 80.8817 344.208 80.8142 342.211 81.5854C340.213 82.3566 338.811 83.856 338.002 86.0837L331.209 83.6188C332.697 79.6708 335.264 76.9869 338.909 75.5671C342.588 74.1318 346.656 74.2224 351.111 75.8391C355.738 77.5179 358.883 80.0722 360.547 83.5018C362.245 86.9158 362.308 90.7893 360.736 95.1223C359.181 99.4062 355.666 102.91 350.19 105.632L344.749 108.146C342.242 109.48 340.314 112.008 338.964 115.729L332.171 113.264ZM327.653 124.797C328.053 123.696 328.716 122.898 329.644 122.403C330.605 121.893 331.746 121.878 333.068 122.357C334.39 122.837 335.256 123.581 335.666 124.588C336.085 125.571 336.094 126.614 335.695 127.715C335.295 128.817 334.619 129.61 333.667 130.096C332.724 130.557 331.592 130.548 330.27 130.068C328.948 129.589 328.073 128.87 327.645 127.911C327.251 126.937 327.253 125.899 327.653 124.797Z" fill="#564BAA"/>
<path opacity="0.8" d="M434.717 212.499C436.22 211.276 437.531 210.458 438.652 210.046C439.773 209.633 441.26 209.466 443.113 209.543L447.695 209.866C449.758 209.915 451.468 209.368 452.825 208.225C454.132 207.124 454.864 205.922 455.022 204.618C455.192 203.305 454.726 201.994 453.625 200.687C452.556 199.418 451.36 198.68 450.037 198.475C448.715 198.269 447.487 198.644 446.355 199.598L443.445 196.144C445.482 194.47 447.709 193.817 450.127 194.185C452.567 194.556 454.741 195.873 456.65 198.139C458.632 200.491 459.539 202.856 459.37 205.233C459.225 207.611 458.05 209.729 455.847 211.585C453.669 213.42 450.672 214.221 446.857 213.987L443.126 213.651C441.352 213.591 439.52 214.359 437.628 215.953L434.717 212.499ZM428.673 217.336C429.233 216.864 429.841 216.639 430.498 216.66C431.177 216.684 431.8 217.031 432.367 217.704C432.933 218.376 433.17 219.049 433.078 219.722C432.998 220.385 432.678 220.953 432.118 221.425C431.558 221.897 430.944 222.116 430.277 222.082C429.622 222.037 429.012 221.679 428.446 221.007C427.879 220.335 427.63 219.672 427.697 219.02C427.788 218.369 428.113 217.808 428.673 217.336Z" fill="#564BAA"/>
<path opacity="0.8" d="M93.9717 221.835C92.5064 220.568 91.4734 219.418 90.8727 218.386C90.2719 217.353 89.8489 215.918 89.6036 214.08L89.1257 209.512C88.8161 207.471 87.9806 205.882 86.6194 204.745C85.3081 203.649 83.997 203.136 82.6861 203.207C81.3627 203.268 80.1531 203.954 79.0571 205.265C77.9924 206.539 77.4737 207.845 77.5009 209.183C77.5282 210.52 78.11 211.664 79.2464 212.614L76.3499 216.08C74.3477 214.364 73.3181 212.284 73.2613 209.839C73.2023 207.372 74.1227 205.001 76.0224 202.729C77.9952 200.368 80.1664 199.065 82.5362 198.818C84.904 198.549 87.1931 199.338 89.4035 201.185C91.589 203.012 92.8978 205.824 93.3299 209.621L93.6464 213.354C93.896 215.111 94.9699 216.783 96.8682 218.37L93.9717 221.835ZM99.7846 226.948C99.2227 226.479 98.8953 225.919 98.8024 225.268C98.7075 224.595 98.9419 223.921 99.5056 223.247C100.069 222.572 100.691 222.222 101.37 222.196C102.037 222.159 102.652 222.376 103.213 222.846C103.775 223.315 104.098 223.882 104.18 224.545C104.25 225.197 104.003 225.86 103.439 226.535C102.876 227.209 102.267 227.57 101.612 227.617C100.956 227.641 100.347 227.418 99.7846 226.948Z" fill="#564BAA"/>
<path d="M142.698 339.979C139.607 339.746 137.184 339.253 135.428 338.498C133.672 337.743 131.761 336.302 129.694 334.172L124.727 328.757C122.385 326.429 119.797 325.182 116.963 325.017C114.233 324.858 112.06 325.448 110.443 326.789C108.799 328.128 107.898 330.162 107.739 332.892C107.584 335.543 108.162 337.716 109.472 339.41C110.782 341.104 112.619 342.019 114.985 342.157L114.564 349.372C110.356 349.074 107.05 347.381 104.648 344.293C102.221 341.178 101.146 337.255 101.422 332.523C101.708 327.61 103.257 323.865 106.068 321.29C108.854 318.688 112.549 317.521 117.15 317.789C121.7 318.054 126.061 320.422 130.235 324.891L134.199 329.387C136.194 331.408 139.167 332.534 143.119 332.764L142.698 339.979ZM155.042 341.012C153.872 340.943 152.917 340.536 152.178 339.788C151.415 339.013 151.074 337.924 151.156 336.52C151.238 335.116 151.703 334.074 152.551 333.393C153.374 332.71 154.37 332.403 155.54 332.471C156.71 332.54 157.663 332.961 158.401 333.734C159.112 334.506 159.427 335.594 159.345 336.998C159.263 338.402 158.824 339.445 158.028 340.129C157.207 340.786 156.212 341.08 155.042 341.012Z" fill="#564BAA"/>
<path d="M313.558 215.458C314.912 212.67 316.263 210.598 317.611 209.243C318.959 207.889 321.003 206.642 323.744 205.504L330.607 202.88C333.634 201.56 335.746 199.612 336.943 197.038C338.096 194.559 338.347 192.321 337.696 190.324C337.056 188.303 335.497 186.716 333.017 185.563C330.609 184.443 328.376 184.18 326.319 184.774C324.262 185.368 322.734 186.74 321.734 188.889L315.182 185.842C317.008 182.038 319.799 179.588 323.554 178.491C327.344 177.382 331.388 177.826 335.686 179.825C340.148 181.9 343.06 184.719 344.419 188.28C345.813 191.829 345.538 195.694 343.594 199.873C341.673 204.005 337.866 207.189 332.173 209.425L326.534 211.454C323.921 212.565 321.779 214.916 320.11 218.505L313.558 215.458ZM308.053 226.554C308.547 225.491 309.277 224.754 310.244 224.342C311.246 223.918 312.384 224.002 313.659 224.595C314.935 225.188 315.732 226.004 316.053 227.043C316.385 228.059 316.304 229.099 315.81 230.161C315.315 231.224 314.573 231.956 313.582 232.356C312.603 232.734 311.475 232.626 310.2 232.033C308.925 231.44 308.116 230.647 307.774 229.655C307.465 228.65 307.558 227.616 308.053 226.554Z" fill="#564BAA"/>
<path d="M389.057 340.486C392.129 340.073 394.602 340.053 396.476 340.428C398.35 340.802 400.519 341.816 402.982 343.47L408.964 347.738C411.738 349.53 414.528 350.213 417.335 349.787C420.038 349.377 422.042 348.348 423.346 346.702C424.676 345.051 425.136 342.874 424.726 340.171C424.327 337.545 423.312 335.539 421.679 334.154C420.047 332.768 418.059 332.253 415.716 332.609L414.632 325.464C418.811 324.883 422.395 325.853 425.386 328.376C428.406 330.92 430.271 334.536 430.982 339.221C431.721 344.088 430.982 348.072 428.766 351.174C426.58 354.297 423.208 356.205 418.651 356.897C414.145 357.58 409.387 356.169 404.377 352.662L399.567 349.085C397.197 347.522 394.055 347.037 390.141 347.631L389.057 340.486ZM376.767 342.035C377.926 341.859 378.944 342.06 379.822 342.638C380.73 343.238 381.289 344.233 381.5 345.624C381.711 347.014 381.472 348.13 380.783 348.972C380.12 349.81 379.209 350.317 378.051 350.493C376.892 350.669 375.872 350.455 374.99 349.851C374.134 349.244 373.601 348.245 373.39 346.854C373.179 345.464 373.392 344.352 374.029 343.518C374.696 342.705 375.609 342.211 376.767 342.035Z" fill="#564BAA"/>
</svg>
