<svg xmlns="http://www.w3.org/2000/svg" xmlns:xlink="http://www.w3.org/1999/xlink" viewBox="0 0 138.25 50.42"><defs><style>.cls-1,.cls-8{fill:none;}.cls-2{isolation:isolate;}.cls-3{mix-blend-mode:multiply;}.cls-4{clip-path:url(#clip-path);}.cls-5{clip-path:url(#clip-path-2);}.cls-6{fill:#45aadb;}.cls-7{clip-path:url(#clip-path-3);}.cls-8{stroke:#4e4e98;stroke-miterlimit:10;stroke-width:21.12px;}</style><clipPath id="clip-path" transform="translate(-0.32 -41.18)"><rect class="cls-1" x="7.52" y="41.18" width="131.05" height="44.03"/></clipPath><clipPath id="clip-path-2" transform="translate(-0.32 -41.18)"><rect class="cls-1" x="7.52" y="41.18" width="131.05" height="44.03"/></clipPath><clipPath id="clip-path-3" transform="translate(-0.32 -41.18)"><rect class="cls-1" x="0.32" y="51.07" width="21.12" height="40.54"/></clipPath></defs><title>Inning</title><g class="cls-2"><g id="Laag_1" data-name="Laag 1"><g class="cls-3"><g class="cls-4"><g class="cls-5"><path class="cls-6" d="M136.59,43.36l-.19-.2a6.76,6.76,0,0,0-9.56,0L105.2,64.8A4.05,4.05,0,0,1,102.34,66H70.28a3.39,3.39,0,0,1-3.38-3.38,3.29,3.29,0,0,1,2.64-3.21,7.82,7.82,0,0,1,1.37-.08l6.5,0h1.41l4.26,0,4.16,0h7.41a7.05,7.05,0,0,0,7.11-6.1A6.76,6.76,0,0,0,95,45.71H52.86A4.35,4.35,0,0,0,50,46.8L31.88,60.34,7.52,60.7V85.21H51.35l52.12,0a8.86,8.86,0,0,0,6.2-2.58l26.92-29.68a6.76,6.76,0,0,0,0-9.56" transform="translate(-0.32 -41.18)"/></g></g></g><g class="cls-3"><g class="cls-7"><g class="cls-7"><line class="cls-8" x1="10.56" y1="9.89" x2="10.56" y2="50.42"/></g></g></g></g></g></svg>