<svg id="Laag_1" data-name="Laag 1" xmlns="http://www.w3.org/2000/svg" xmlns:xlink="http://www.w3.org/1999/xlink" viewBox="0 0 460.55 149.69"><defs><style>.cls-1{fill:none;}.cls-2{clip-path:url(#clip-path);}.cls-3{fill:#1d1d1b;}</style><clipPath id="clip-path"><rect class="cls-1" width="460.55" height="149.69"/></clipPath></defs><title>Logo</title><g class="cls-2"><path class="cls-3" d="M385.11,147.7h19L460.55,8H432.81l-38.32,95.41L356.37,8H328.62ZM184.52,77.84c0,39.72,29.74,71.85,72.85,71.85s72.85-32.13,72.85-71.85S300.48,6,257.37,6s-72.85,32.13-72.85,71.85m26.94,0c0-26.35,19.56-47.9,45.91-47.9s45.91,21.55,45.91,47.9-19.56,47.9-45.91,47.9-45.91-21.55-45.91-47.9m-89.39-47.9A47.88,47.88,0,0,1,156,44.31L173.36,26C160.79,13.77,143,6,122.27,6,78.76,6,48.62,37.72,48.62,77.84s30.54,71.85,74.05,71.85c25.55,0,46.3-11,58.68-26.74l-18.56-16.57a48.87,48.87,0,0,1-39.52,19.36c-26.95,0-47.7-20.76-47.7-47.9,0-26.55,20-47.9,46.5-47.9M0,16.57A16.61,16.61,0,0,0,17,33.13,16.57,16.57,0,1,0,17,0,16.61,16.61,0,0,0,0,16.57"/><path class="cls-3" d="M17,147.66H30V63.73A12.84,12.84,0,0,0,17.17,50.89h-13v83.93A12.84,12.84,0,0,0,17,147.66"/></g></svg>