<svg xmlns="http://www.w3.org/2000/svg" xmlns:xlink="http://www.w3.org/1999/xlink" viewBox="0 0 135.61 139.48"><defs><style>.cls-1{fill:none;}.cls-2{isolation:isolate;}.cls-3{mix-blend-mode:multiply;}.cls-4{clip-path:url(#clip-path);}.cls-5{clip-path:url(#clip-path-2);}.cls-6{fill:#4e4e98;}.cls-7{clip-path:url(#clip-path-3);}.cls-8{fill:#45aadb;}</style><clipPath id="clip-path" transform="translate(-1.02 -1.53)"><rect class="cls-1" x="1.02" y="50.91" width="79.43" height="90.1"/></clipPath><clipPath id="clip-path-2" transform="translate(-1.02 -1.53)"><rect class="cls-1" x="1.02" y="50.91" width="79.43" height="90.1"/></clipPath><clipPath id="clip-path-3" transform="translate(-1.02 -1.53)"><rect class="cls-1" x="37.87" y="1.52" width="98.76" height="126.57"/></clipPath></defs><title>Ondermijning of Criminaliteit</title><g class="cls-2"><g id="Laag_1" data-name="Laag 1"><g class="cls-3"><g class="cls-4"><g class="cls-5"><path class="cls-6" d="M80.45,101.29A39.72,39.72,0,0,0,58.64,65.84L54.76,50.91h-28L22.82,65.84A40,40,0,0,0,7.22,80,39.52,39.52,0,0,0,1,100c0,.42,0,.84,0,1.26a39.53,39.53,0,0,0,4.19,17.78,40.12,40.12,0,0,0,2.64,4.43l.06.08c.68,1,1.4,2,2.17,2.9l.23.27c.72.86,1.47,1.69,2.26,2.48l.45.44c.48.47.94,1,1.45,1.41l0-.06a39.5,39.5,0,0,0,6.4,4.63l0,0c.28.17.58.31.86.47l.25.13a39.39,39.39,0,0,0,6.71,2.84l.55.17a39.35,39.35,0,0,0,7,1.44l.8.08c1.2.11,2.41.19,3.63.19h0a39.68,39.68,0,0,0,39.7-39.72m-43.52-40h7.6v7.6h-7.6Zm-13.07,55c-.42-.47-.81-1-1.19-1.46a1.47,1.47,0,0,0-.1-.13c-.36-.49-.69-1-1-1.51a2.39,2.39,0,0,0-.13-.21q-.45-.75-.84-1.53l-.15-.3c-.24-.51-.47-1-.68-1.55l-.14-.38c-.19-.51-.37-1-.53-1.57,0-.15-.07-.29-.11-.43-.14-.53-.27-1.07-.38-1.61l-.06-.43c-.1-.56-.19-1.12-.24-1.69v0c-.07-.7-.1-1.4-.1-2.11a22.77,22.77,0,0,1,.31-3.62c0-.24.07-.49.11-.72.09-.44.21-.86.31-1.28s.14-.56.22-.83.27-.81.42-1.22.18-.54.29-.81.23-.53.35-.79.32-.68.49-1,.26-.5.4-.74c.22-.39.45-.76.69-1.14l.32-.51a18.38,18.38,0,0,1,1.13-1.5c.12-.16.26-.31.4-.47.3-.35.61-.7.94-1,.14-.15.29-.29.43-.43.4-.38.8-.76,1.22-1.11l.23-.2a20.9,20.9,0,0,1,1.68-1.25h0q.86-.57,1.77-1.08l.16-.09a22.56,22.56,0,1,1,19.58,40.6l-.38.15a23.05,23.05,0,0,1-3.91,1.21l-.3,0c-.57.11-1.15.2-1.73.26l-.52.06c-.68.06-1.36.1-2,.1a23.35,23.35,0,0,1-2.67-.16l-.62-.1c-.68-.1-1.35-.22-2-.38l-.61-.16c-.71-.19-1.41-.42-2.09-.67l-.32-.12a22.4,22.4,0,0,1-2.38-1.11v0a22.65,22.65,0,0,1-6.21-5" transform="translate(-1.02 -1.53)"/></g></g></g><g class="cls-3"><g class="cls-7"><g class="cls-7"><path class="cls-8" d="M114.82,52.92,110.94,38h-10.2c-.14-3.23-.22-6.46-.39-9.69-.2-3.83-.32-7.2-2.08-10.69A29.22,29.22,0,0,0,72.2,1.53H67A29.19,29.19,0,0,0,37.87,30.69V50.91h7.88s0-20.44,0-20.44A21.31,21.31,0,0,1,67,9.41c8.61,0,18.12,1.12,22.57,9.74,1.64,3.18,2.06,6.77,2.24,10.3,0,.59.28,5.12.4,8.54H82.89L79,52.92A40,40,0,0,0,63.4,67.06a39.56,39.56,0,0,0-6.18,20c0,.42,0,.84,0,1.27a39.47,39.47,0,0,0,4.2,17.78A37.92,37.92,0,0,0,64,110.58a.41.41,0,0,0,0,.09c.68,1,1.4,2,2.17,2.89l.23.28c.72.86,1.47,1.68,2.26,2.48l.45.44c.48.47.94,1,1.45,1.4l0,0a45.12,45.12,0,0,0,6.37,4.67c.28.16.58.31.87.46a1.83,1.83,0,0,0,.24.13,40.25,40.25,0,0,0,6.71,2.85l.56.16a39.08,39.08,0,0,0,7,1.45l.81.08c1.19.11,2.4.18,3.64.18a39.72,39.72,0,0,0,17.89-75.17m-14.11,3H93.12v-7.6h7.59Zm5.13,53.2-.37.15a21.72,21.72,0,0,1-3.92,1.21l-.3,0c-.57.11-1.14.2-1.73.26a4.35,4.35,0,0,1-.52.06c-.67.06-1.36.11-2,.11a23.48,23.48,0,0,1-2.67-.17l-.62-.1c-.68-.1-1.35-.22-2-.38l-.61-.16a21.19,21.19,0,0,1-2.09-.67l-.32-.12a24.5,24.5,0,0,1-2.38-1.1h0a22.61,22.61,0,0,1-6.21-5c-.42-.48-.81-1-1.19-1.47a.64.64,0,0,0-.1-.13c-.35-.49-.69-1-1-1.5a2.53,2.53,0,0,0-.13-.22q-.45-.75-.84-1.53l-.15-.3c-.24-.5-.47-1-.68-1.55,0-.12-.09-.25-.14-.37-.19-.52-.37-1.05-.53-1.58,0-.14-.07-.29-.11-.43-.14-.53-.27-1.07-.38-1.61l-.06-.43c-.1-.56-.19-1.12-.24-1.69v0c-.06-.69-.1-1.39-.1-2.1a22.67,22.67,0,0,1,.31-3.62c0-.25.07-.49.12-.73.08-.43.19-.86.31-1.28.07-.27.13-.55.2-.82.13-.42.28-.82.43-1.22s.18-.55.29-.82.23-.52.35-.78.32-.69.49-1l.4-.74c.22-.38.45-.76.69-1.13l.32-.52c.35-.51.73-1,1.13-1.5.13-.16.26-.31.4-.46.3-.36.61-.71.94-1l.44-.43c.38-.38.79-.75,1.21-1.11l.23-.19c.54-.45,1.1-.87,1.67-1.26h0c.57-.38,1.16-.74,1.77-1.07l.16-.09a22.55,22.55,0,1,1,19.58,40.59" transform="translate(-1.02 -1.53)"/></g></g></g></g></g></svg>