<svg xmlns="http://www.w3.org/2000/svg" xmlns:xlink="http://www.w3.org/1999/xlink" viewBox="0 0 128.52 128.52"><defs><style>.cls-1,.cls-8{fill:none;}.cls-2{isolation:isolate;}.cls-3{mix-blend-mode:multiply;}.cls-4{clip-path:url(#clip-path);}.cls-5{fill:#45aadb;}.cls-6{clip-path:url(#clip-path-3);}.cls-7{clip-path:url(#clip-path-4);}.cls-8{stroke:#4e4e98;stroke-miterlimit:10;stroke-width:10.56px;}.cls-9{clip-path:url(#clip-path-5);}.cls-10{clip-path:url(#clip-path-6);}.cls-11{clip-path:url(#clip-path-7);}.cls-12{clip-path:url(#clip-path-9);}.cls-13{clip-path:url(#clip-path-11);}</style><clipPath id="clip-path" transform="translate(-0.06)"><rect class="cls-1" x="16.41" y="16.85" width="95.83" height="95.83"/></clipPath><clipPath id="clip-path-3" transform="translate(-0.06)"><rect class="cls-1" x="59.05" width="10.56" height="31.19"/></clipPath><clipPath id="clip-path-4" transform="translate(-0.06)"><rect class="cls-1" x="59.05" width="10.56" height="31.18"/></clipPath><clipPath id="clip-path-5" transform="translate(-0.06)"><rect class="cls-1" x="59.05" y="97.34" width="10.56" height="31.18"/></clipPath><clipPath id="clip-path-6" transform="translate(-0.06)"><rect class="cls-1" x="59.05" y="97.34" width="10.56" height="31.18"/></clipPath><clipPath id="clip-path-7" transform="translate(-0.06)"><rect class="cls-1" x="0.06" y="58.98" width="31.18" height="10.56"/></clipPath><clipPath id="clip-path-9" transform="translate(-0.06)"><rect class="cls-1" x="97.4" y="58.98" width="31.18" height="10.56"/></clipPath><clipPath id="clip-path-11" transform="translate(-0.06)"><rect class="cls-1" x="41.12" y="41.06" width="46.41" height="46.41"/></clipPath></defs><title>Opsporing</title><g class="cls-2"><g id="Laag_1" data-name="Laag 1"><g class="cls-3"><g class="cls-4"><g class="cls-4"><path class="cls-5" d="M112.24,64.76A47.92,47.92,0,1,1,64.32,16.84a47.91,47.91,0,0,1,47.92,47.92" transform="translate(-0.06)"/></g></g></g><g class="cls-3"><g class="cls-6"><g class="cls-7"><line class="cls-8" x1="64.26" x2="64.26" y2="31.19"/></g></g></g><g class="cls-3"><g class="cls-9"><g class="cls-10"><line class="cls-8" x1="64.26" y1="97.34" x2="64.26" y2="128.52"/></g></g></g><g class="cls-3"><g class="cls-11"><g class="cls-11"><line class="cls-8" y1="64.26" x2="31.18" y2="64.26"/></g></g></g><g class="cls-3"><g class="cls-12"><g class="cls-12"><line class="cls-8" x1="97.34" y1="64.26" x2="128.52" y2="64.26"/></g></g></g><g class="cls-3"><g class="cls-13"><g class="cls-13"><circle class="cls-8" cx="64.32" cy="64.26" r="17.92" transform="translate(-19.76 29.51) rotate(-22.5)"/></g></g></g></g></g></svg>