<svg id="Laag_1" data-name="Laag 1" xmlns="http://www.w3.org/2000/svg" viewBox="0 0 50 100"><defs><style>.cls-1{fill:#154273;}.cls-2{fill:#fff;}</style></defs><title>RijksoverheidLogo</title><g id="Laag_1-2" data-name="Laag 1"><rect class="cls-1" width="50" height="100"/><path class="cls-2" d="M25.9,77.36H25V75h.87Zm3.93-10.64H29V64.31h.87ZM13.71,62.56c-.07,0-.52,0-.52.09s.21.05.52.1c.7.12,1,.47,1.46.47a.69.69,0,0,0,.72-.94c0-.11-.09-.08-.11,0a.76.76,0,0,1-.79.45C14.53,62.72,14.44,62.56,13.71,62.56ZM8.92,65c.08.11.9,1.17-.36,1.58-.06,0-.07.07,0,.11A1.07,1.07,0,0,0,10,66.33,1.39,1.39,0,0,1,9.7,68a2,2,0,0,0,1.22.67,1.62,1.62,0,0,0,.77-.8,1.48,1.48,0,0,1,0,.92c1.9.17,2.57-1.35,4-1.07,0,0,.06,0,.06-.06a3,3,0,0,0-2.39-3c-1.81-.35-1.32-1.09-1.32-1.09a2,2,0,0,1,1.2.3.43.43,0,0,0-.06-.47,1.28,1.28,0,0,0,.11-.4c-.86,0-1.08-.19-1.08-.19-.13-.51.22-1.23,1.5-.46a1,1,0,0,0,.29-.72.36.36,0,0,0,.16-.26c0-.21-1-.78-1.28-.85-.06-.31-.46-.75-1.66-.59-.57.07-1-.08-.79-.41,0-.06-.07-.07-.12,0s-.31.5.18.75a1.1,1.1,0,0,1,.59.91c0,.12-.13.13-.16,0a1.53,1.53,0,0,0-2.28-.64,1,1,0,0,0,.87.83A.43.43,0,0,0,10,61c0-.11.06-.1.09,0a.68.68,0,0,1-1.09.6,2,2,0,0,0-.37,2c.13.6-.16,1.19-.71.92,0,0-.06,0-.06,0A.7.7,0,0,0,8.92,65ZM13,61.24c-.35.39-.91.3-1.05-.34C12.67,60.86,13,60.93,13,61.24Zm22.07,1.48a.76.76,0,0,1-.79-.45c0-.07-.08-.1-.11,0a.69.69,0,0,0,.72.94c.49,0,.76-.35,1.46-.47.31,0,.52,0,.52-.1s-.45-.09-.52-.09C35.63,62.56,35.53,62.72,35.07,62.72Zm7.16,1.77c0-.06,0,0-.06,0-.55.27-.84-.31-.71-.92a2,2,0,0,0-.37-2,.67.67,0,0,1-1.09-.6c0-.09.09-.1.09,0a.43.43,0,0,0,.4.4,1,1,0,0,0,.87-.83,1.53,1.53,0,0,0-2.28.64c0,.12-.17.11-.16,0a1.08,1.08,0,0,1,.59-.91c.5-.25.32-.62.18-.75s-.16,0-.12,0c.19.33-.22.48-.78.41-1.2-.16-1.59.29-1.66.59-.26.07-1.28.64-1.28.85a.34.34,0,0,0,.16.26,1,1,0,0,0,.29.72c1.27-.77,1.63,0,1.5.46a2,2,0,0,1-1.09.19,1.28,1.28,0,0,0,.11.4.44.44,0,0,0-.06.47,2,2,0,0,1,1.2-.3s.49.74-1.32,1.09a3,3,0,0,0-2.39,3s0,.07.06.06c1.47-.27,2.14,1.25,4,1.07a1.41,1.41,0,0,1,0-.92,1.58,1.58,0,0,0,.77.8A1.93,1.93,0,0,0,40.36,68a1.39,1.39,0,0,1-.25-1.67,1.07,1.07,0,0,0,1.38.33c.08,0,.06-.09,0-.11-1.26-.41-.44-1.47-.36-1.58A.68.68,0,0,0,42.23,64.49ZM38.11,60.9c-.14.64-.7.73-1,.34C37.09,60.93,37.4,60.86,38.11,60.9ZM24.7,50.21a.74.74,0,0,0,.12.38c.11.16.09.25,0,.3s-.14.07-.3,0a.66.66,0,0,0-.38-.12.34.34,0,1,0,0,.66.74.74,0,0,0,.38-.12c.16-.11.25-.09.3,0a3.9,3.9,0,0,1-.09,1,.81.81,0,0,0-.67.67c0,.55.58.86.93,1.05.34-.18.93-.5.93-1.05a.8.8,0,0,0-.67-.67,4.38,4.38,0,0,1-.09-1c.05,0,.14-.07.3,0a.66.66,0,0,0,.38.12.34.34,0,1,0,0-.66.74.74,0,0,0-.38.12c-.16.11-.25.09-.3,0s-.07-.14,0-.3a.66.66,0,0,0,.12-.38.34.34,0,1,0-.66,0ZM25,54.27a.67.67,0,1,0,.67.67A.67.67,0,0,0,25,54.27Zm0,6.41a14.18,14.18,0,0,1,4.17.51c0-1.35,0-2.1.78-2-.42-1.13,1.4-1.58,1.4-3.05,0-1-.69-1.08-.89-1.08-.6,0-.51.39-1,.39-.06,0-.13,0-.13,0s.14.46.38.46.32-.32.56-.32.25.08.25.41a3,3,0,0,1-.9,1.86.55.55,0,0,0-.45-.25.62.62,0,0,0-.54.67.78.78,0,0,0,.07.35.94.94,0,0,1-.41.14.51.51,0,0,1-.55-.57c0-1.07,1.43-2,1.43-3.37a1.25,1.25,0,0,0-1.34-1.29c-1,0-.79.88-1.63.88,0,0-.07,0-.07,0s.15.55.58.55.59-.8,1-.8c.15,0,.38.09.38.63a5,5,0,0,1-.51,1.76.61.61,0,0,0-.42-.19.69.69,0,0,0-.62.76.92.92,0,0,0,.28.68,1,1,0,0,1-.72.49c-.58,0-.83-.33-.83-.69s.71-.53.71-1.13a.58.58,0,0,0-.52-.64.76.76,0,0,0-.45.18.76.76,0,0,0-.45-.18.57.57,0,0,0-.52.64c0,.6.71.75.71,1.13s-.26.69-.83.69a1,1,0,0,1-.72-.49.94.94,0,0,0,.28-.68.69.69,0,0,0-.62-.76.59.59,0,0,0-.42.19A5,5,0,0,1,22,54.89c0-.54.23-.63.38-.63.41,0,.54.8,1,.8s.58-.49.58-.55,0,0-.07,0c-.84,0-.66-.88-1.63-.88a1.26,1.26,0,0,0-1.34,1.29c0,1.36,1.43,2.3,1.43,3.37a.51.51,0,0,1-.55.57.9.9,0,0,1-.41-.14.81.81,0,0,0,.07-.35.62.62,0,0,0-.54-.67.55.55,0,0,0-.44.25,3,3,0,0,1-.9-1.86c0-.32.15-.41.25-.41s.24.32.56.32.38-.29.38-.46-.07,0-.13,0c-.51,0-.42-.39-1-.39-.2,0-.89.11-.89,1.08,0,1.48,1.82,1.92,1.4,3.05.77-.11.76.64.78,2A14,14,0,0,1,25,60.68Zm-4.89,2c-.73.16-1.25.31-1.48.38,0-.32.13-.62.42-.68a0,0,0,0,0,0-.08c-.65-.43-1,.39-1,.42-.23,0-.58,0-.58.36,0,.93-2.12,1.44-2.61,1.52A2.49,2.49,0,0,1,16.13,66a5.28,5.28,0,0,1,1.53-1.18c.17,0,.23.21.24.33s0,0,.07,0c.33-.49.17-.6.14-.75A.42.42,0,0,1,18.6,64v6.19l-.25,0c-.11,0-1-.75-2.05-1.47s-1.59-.29-2.77.35a3.65,3.65,0,0,1-3.11.08c-1.33.95-1.79,3.71-1.79,3.71a3.21,3.21,0,0,1-1.12.23c-1,0-1.2-.62-1.2-1,0-1.57,2-2.24,2-3.79a1.87,1.87,0,0,0-2.06-1.9H4.53a1,1,0,0,1-1-.7c0-.08-.11,0-.08,0s-.08.33-.08.72a.94.94,0,0,0,1.06,1,1.58,1.58,0,0,0,.7-.15c.06,0,.1,0,.07.06A1.26,1.26,0,0,0,5,68.55s.07,0,.07,0a1.72,1.72,0,0,1,1.63-1.29,1,1,0,0,1,1,1.08c0,1.26-2.21,2.18-2.21,3.92s1.86,2.13,2.93,1.86c-.06,1.76-2.08,2.36-2.14,1.1,0-.06-.05-.07-.08,0-.25.62-.15,1.17.63,1.34,0,0,0,0,0,.08-.78.49-.36,2.43-.32,3,.06.82-.76.72-.83.7s-.07,0,0,.07a.88.88,0,0,0,1.3.06c.54.17.21.63-.16.87-.06,0,0,.08,0,.08s.92.08,1.07-.59a.89.89,0,0,0,1,.22c.16-.08,1-.37,1,.51,0,.06,0,0,.07,0a.72.72,0,0,0-.4-1.26.59.59,0,0,1,.93.11s.06,0,.06,0c.05-.95-.72-1-1.22-.62,0-.1-.19-.63.56-.61a0,0,0,0,0,0-.06.72.72,0,0,0-1.18.08c-.26.31-.91.18-1,.18.2-3.29,3.1-2.12,3.5-3.72,0-.08.06,0,.06,0,.11.39,1.09.44,1.27-.32,0-.05,0-.08,0-.05-.84.84-2.73-1.78-.15-3.91a3.75,3.75,0,0,1,4.92-.21.31.31,0,0,1-.22.38s-.05,0,0,.07a.57.57,0,0,0,.64-.14c.47.33.07.75-.12.86s0,.06,0,.07a.76.76,0,0,0,.81-.62l.07,0v1.87c0,2.66,3.07,3,6.44,5.28,3.37-2.26,6.43-2.62,6.43-5.28V71.78l.07,0a.76.76,0,0,0,.81.62s.06,0,0-.07-.6-.53-.12-.86a.55.55,0,0,0,.64.14c.06,0,0-.06,0-.07a.31.31,0,0,1-.22-.38,3.73,3.73,0,0,1,4.92.21c2.58,2.13.69,4.74-.15,3.91,0,0,0,0,0,.05.18.77,1.16.71,1.27.32,0,0,0-.06.06,0,.4,1.6,3.29.43,3.5,3.72-.06,0-.71.13-1-.18a.72.72,0,0,0-1.18-.08s0,.06,0,.06c.75,0,.59.51.56.61-.5-.41-1.27-.33-1.22.62,0,.07,0,.07.06,0a.59.59,0,0,1,.93-.11.72.72,0,0,0-.4,1.26s.06.07.07,0c.08-.88.86-.6,1-.51a.89.89,0,0,0,1-.22c.15.67,1,.6,1.07.59s.06,0,0-.08c-.36-.24-.7-.7-.16-.87a.88.88,0,0,0,1.3-.06c0-.06,0-.08,0-.07s-.89.12-.83-.7c0-.57.46-2.51-.32-3,0,0-.07-.06,0-.08.78-.17.88-.72.63-1.34,0-.08-.08-.06-.08,0-.06,1.26-2.07.66-2.14-1.1,1.08.28,2.93-.1,2.93-1.86s-2.21-2.66-2.21-3.92a1,1,0,0,1,1-1.08A1.72,1.72,0,0,1,45,68.55s0,0,.07,0a1.25,1.25,0,0,0-.2-1.16s0-.1.07-.06a1.58,1.58,0,0,0,.7.15.94.94,0,0,0,1.06-1c0-.39-.14-.59-.08-.72s-.05-.1-.08,0a1,1,0,0,1-1,.7H43.85a1.87,1.87,0,0,0-2.06,1.9c0,1.55,2,2.22,2,3.79,0,.37-.19,1-1.2,1a3.12,3.12,0,0,1-1.12-.23s-.45-2.75-1.79-3.71a3.65,3.65,0,0,1-3.11-.08c-1.18-.64-1.74-1.07-2.78-.35s-1.94,1.49-2,1.47l-.25,0V64a.42.42,0,0,1,.49.49c0,.14-.18.26.14.75,0,0,.06,0,.07,0s.08-.33.24-.33A5.41,5.41,0,0,1,33.93,66a2.52,2.52,0,0,1,1.23-1.43c-.49-.08-2.61-.59-2.61-1.52,0-.31-.35-.38-.58-.36,0,0-.36-.85-1-.42a0,0,0,0,0,0,.08c.29.07.41.36.42.68A23.23,23.23,0,0,0,25,62.12a22.79,22.79,0,0,0-4,.38v2.14h-.87v-2h0m-5.76,22A.53.53,0,0,1,14,84.1V82.77a9.67,9.67,0,0,0-3.51-.53c-1.73,0-2.27.39-2.3.53L7.73,85.3s.7-.64,3.21-.48c3,.19,6.15,2,6.15.07V83.77C14.73,83.78,14.38,84.54,14.38,84.65ZM33,83.78V84.9c0,1.9,3.13.12,6.15-.07,2.51-.16,3.21.48,3.21.48l-.46-2.54c0-.14-.57-.53-2.3-.53a9.78,9.78,0,0,0-3.51.53V84.1a.55.55,0,0,1-.38.55C35.69,84.54,35.34,83.78,33,83.78ZM25,82.63c4.87,0,9.81.25,10.45,1,.05.06.07,0,.07-.05V81c0-.75-5.1-1.19-10.53-1.19S14.49,80.24,14.49,81v2.58s0,.1.07.05C15.23,82.89,20.17,82.63,25,82.63ZM20.69,70.47l-.49-.13,0,.06-.57-.25h.51s0,0,0-.05l-.44-.43.56.21s.05,0,0,0l-.38-.55.55.37s.05,0,0,0L20.23,69l.5.48s.05,0,0,0l-.14-.65.37.54s.05,0,.05,0,0-.59,0-.59.16.36.23.54,0,0,.06,0,.19-.46.19-.46l0,.62-.08,0-.1.74c.73-.17,1.65-1.43,2.35-1.43s1.14,1,2.68.48A4.6,4.6,0,0,1,27.09,71c.6.56,1.43.37,1.43-.22,0-.8-.87-1-.87-1.79a.91.91,0,0,1,1-.91c.38,0,.93.16,1.25.16a.48.48,0,0,0,.5-.39c0-.08.14-.06.13,0s0,.19,0,.37c0,.53-.77.6-.86.53s-.07,0,0,0,.09.41-.05.61c0,0,0,0,0,0a1.16,1.16,0,0,0-.92-.85.41.41,0,0,0-.43.42c0,.47.95.91.95,1.89s-1,1.27-2,1c0,1,1.48,1.54,1.51.85,0,0,0,0,0,0,.21.3.12.52-.16.64.25.11.3.62.37.93.11.46.59.2.62.19s0,0,0,0a.51.51,0,0,1-.67.29c-.25.18,0,.34.28.41,0,0,0,0,0,0-.17.06-.53.18-.71-.13a.48.48,0,0,1-.5.31c-.19,0-.31.19-.27.45,0,0,0,0,0,0a.4.4,0,0,1,0-.73.32.32,0,0,0-.47.21s0,0,0,0c-.19-.52.23-.67.53-.54a.46.46,0,0,0-.58-.24s0,0,0,0a.39.39,0,0,1,.63-.16c.19.12.51-.05.54-.07-.65-1.29-1.9-.21-2.19-1.22,0,0,0,0-.05,0-.07.21-.62.23-.72-.19,0,0,0,0,0,0s.25.15.48-.17a1.27,1.27,0,0,0,.17-.7,2.23,2.23,0,0,0-2-2.1,4,4,0,0,0-2.22.75l.57.13a.88.88,0,0,1-1.12.77l.09-.66a.87.87,0,0,0-.43.28s0,0,0,0a.52.52,0,0,1,.3-.61s0,0,0,0a.56.56,0,0,0-.48.26s0,0,0,0S20.56,70.61,20.69,70.47ZM22.4,75c-.22.27-.41,0-.7,0a.31.31,0,0,0-.32.32s0,0,0,0a.39.39,0,0,1,.24-.68.35.35,0,0,0-.52,0s0,0,0,0c0-.52.4-.56.68-.33.05-.2-.08-.33-.3-.34,0,0,0,0,0,0a.36.36,0,0,1,.27-.14c.29,0,.33.37.52.37a1.43,1.43,0,0,0,.72-.42,3.42,3.42,0,0,1-.23-1.2s0,0,0,0-.48.07-.48-.35c0,0,0,0,0,0,.15.21.4,0,.52-.17s.85-1.19,1.8-1.19a1.4,1.4,0,0,1,.7.27c-.33.4,0,.78.24.73,0,0,0,0,0,0-1.26.47-1.82.66-1.82,1.72,0,.55.19.86.51.78,0,0,0,0,0,0a.48.48,0,0,1-.36.19c-.26,0-.31-.14-.45-.14s-.61.28-.61.51a.4.4,0,0,0,.22.31,0,0,0,0,1,0,0C22.85,75.27,22.48,75.3,22.4,75ZM25.71,64.7c-.39,0-.65.06-.63.19C25.27,65.09,25.52,65.07,25.71,64.7Zm-1.45,1a1.73,1.73,0,0,1,.62,0,0,0,0,0,1,0,.09c-.58.07-.61.34-1,.34a.46.46,0,0,1-.41-.61s.05,0,.06,0S23.81,65.79,24.26,65.67ZM16.73,78.53c.38.49.75,0,1.26,0,.25,0,.55.08.6.58,0,0,0,0,.05,0a.72.72,0,0,0-.44-1.23.66.66,0,0,1,1,.09,0,0,0,0,0,.06,0c0-1-.71-1-1.23-.61-.1-.37.18-.61.54-.61,0,0,.06,0,0-.05-.64-.68-1.11.18-1.22.31-.25.34-1.16-.3-1.53-.68a3,3,0,0,0,.8-1.61s0-.11,0-.14,0,0,0,0a.58.58,0,0,0,.3.08c.18,0,.53-.06.53-.71,0,0,0,0,0,0a.34.34,0,0,1-.28.17c-.65,0-2-2.16-3.6-2.16a2.62,2.62,0,0,0-1.6.73.52.52,0,0,1,.21.52.57.57,0,0,1-.47.47s0,0,0,.06a15.66,15.66,0,0,1,2.61,1.15c.39.34.32,1,.09,1.87s-.69.74-.87.71c0,0,0,0,0,0a.86.86,0,0,0,.68.35c.42,0,.58-.26.79-.26s1.13.52,1.13.92a.73.73,0,0,1-.4.57s0,0,0,0S16.59,79.17,16.73,78.53Zm17.63.55s0,0,0,0a.77.77,0,0,1-.4-.57c0-.4.76-.92,1.13-.92.22,0,.37.26.79.26a.86.86,0,0,0,.68-.35s0,0,0,0-.65.14-.87-.71-.31-1.53.09-1.87a15.29,15.29,0,0,1,2.61-1.15s0,0,0-.06a.57.57,0,0,1-.47-.47.53.53,0,0,1,.21-.52,2.67,2.67,0,0,0-1.61-.73c-1.6,0-2.95,2.16-3.6,2.16a.32.32,0,0,1-.28-.17s0,0,0,0c0,.65.35.71.53.71a.61.61,0,0,0,.3-.08s0,0,0,0,0,.09,0,.14a3,3,0,0,0,.8,1.61c-.36.38-1.27,1-1.53.68-.11-.14-.58-1-1.22-.31,0,0,0,.05,0,.05.36,0,.64.24.54.61-.52-.41-1.23-.34-1.23.61a0,0,0,0,0,.06,0,.65.65,0,0,1,1-.09.72.72,0,0,0-.44,1.23s0,0,.05,0c.06-.49.36-.58.6-.58.5,0,.87.46,1.26,0C33.48,79.17,34.19,79.11,34.36,79.08ZM21.45,66.61c-.05.07-.22,0-.28,0s0,0,0,0,.2.36.44.36a.4.4,0,0,0,.31-.14s.94.31,1.4.43a1.66,1.66,0,0,0-.32.84c-.37-.23-1.87-1-1.87-1l-.46.64c-.08.1-.45-.17-.37-.27l.35-.49c-.12-.12-.4-.05-.48,0s0,0,0,0a.51.51,0,0,1,.66-.26c0-.27-.4-.18-.51-.15s0,0,0,0a.64.64,0,0,1,.8-.16l.16-.22-.32-.34.2-.28.23.3,1.73-2.37a1.76,1.76,0,0,1,.51-.19,2,2,0,0,1,0,.55l-1.7,2.39.36.12-.2.28-.42-.2Zm6.07-.39c0,.22.13.54.42.44,0,0,0,0,0,0,0,.24-.48.46-.67.18a.63.63,0,0,0,.24.92s0,0,0,.06a.49.49,0,0,1-.74-.19.64.64,0,0,0-.08.9,2,2,0,0,1-1.64.15,2.85,2.85,0,0,0-1.61-.51c.09-.94.56-1.18,1.42-1.32.69-.11.77-.43.68-.67a1.34,1.34,0,0,0-.66.15.24.24,0,0,1,0-.26.66.66,0,0,1-.06-.22c.48,0,.57-.11.57-.11.09-.5-.42-.55-.81-.28a.44.44,0,0,1-.15-.37.22.22,0,0,1-.09-.15c0-.12.57-.44.72-.48s.24-.4.85-.34a2,2,0,0,0-.12-.9s0-.07.06,0c.21.13.42.63.57.64a6.67,6.67,0,0,1,.71-.34s.13.78.13.78.62,0,.85.1c.06,0,.06.07,0,.08a2,2,0,0,0-.81.42A2.17,2.17,0,0,1,27.52,66.22Z" transform="translate(0 0)"/></g></svg>