<svg xmlns="http://www.w3.org/2000/svg" xmlns:xlink="http://www.w3.org/1999/xlink" viewBox="0 0 129.92 121.45"><defs><style>.cls-1{fill:none;}.cls-2{isolation:isolate;}.cls-3{mix-blend-mode:multiply;}.cls-4{clip-path:url(#clip-path);}.cls-5{clip-path:url(#clip-path-2);}.cls-6{fill:#4e4e98;}.cls-7{clip-path:url(#clip-path-3);}.cls-8{clip-path:url(#clip-path-4);}.cls-9{fill:#45aadb;}.cls-10{clip-path:url(#clip-path-5);}</style><clipPath id="clip-path" transform="translate(-4.48 -7.07)"><rect class="cls-1" x="4.48" y="62.43" width="71.38" height="66.09"/></clipPath><clipPath id="clip-path-2" transform="translate(-4.48 -7.07)"><rect class="cls-1" x="4.48" y="62.43" width="71.38" height="66.09"/></clipPath><clipPath id="clip-path-3" transform="translate(-4.48 -7.07)"><rect class="cls-1" x="59.73" y="62.43" width="71.38" height="66.09"/></clipPath><clipPath id="clip-path-4" transform="translate(-4.48 -7.07)"><rect class="cls-1" x="59.73" y="62.43" width="71.38" height="66.09"/></clipPath><clipPath id="clip-path-5" transform="translate(-4.48 -7.07)"><rect class="cls-1" x="83.74" y="62.43" width="50.67" height="42.9"/></clipPath></defs><title>Samenwerken</title><g class="cls-2"><g id="Laag_1" data-name="Laag 1"><g class="cls-3"><g class="cls-4"><g class="cls-5"><path class="cls-6" d="M75.86,128.52H4.48V98.12a35.69,35.69,0,0,1,71.38,0Z" transform="translate(-4.48 -7.07)"/></g></g></g><g class="cls-3"><g class="cls-7"><g class="cls-8"><path class="cls-9" d="M131.11,128.52H59.73V98.12a35.69,35.69,0,0,1,71.38,0Z" transform="translate(-4.48 -7.07)"/></g></g></g><path class="cls-6" d="M60.56,28.6A21.53,21.53,0,1,1,39,7.07,21.53,21.53,0,0,1,60.56,28.6" transform="translate(-4.48 -7.07)"/><path class="cls-9" d="M117,28.6A21.53,21.53,0,1,1,95.42,7.07,21.53,21.53,0,0,1,117,28.6" transform="translate(-4.48 -7.07)"/><g class="cls-3"><g class="cls-10"><g class="cls-10"><polygon class="cls-6" points="129.93 62.9 122.39 55.36 94.82 82.92 86.8 74.89 79.26 82.43 87.03 90.72 94.57 98.26 102.36 90.46 129.93 62.9"/></g></g></g></g></g></svg>