<svg width="95" height="119" viewBox="0 0 95 119" fill="none" xmlns="http://www.w3.org/2000/svg">
<g style="mix-blend-mode:multiply">
<g style="mix-blend-mode:multiply">
<path d="M32.8625 46.0897V30.4549C32.8625 21.2064 39.924 13.6996 48.645 13.6996C57.366 13.6996 64.4274 21.1962 64.4274 30.4549V46.0897H78.29V31.3716C78.29 14.0561 64.9915 0 48.645 0C32.2985 0 19.0434 14.0357 19 31.3716V46.0897H32.8625Z" fill="#4E4E98"/>
</g>
<g style="mix-blend-mode:multiply">
<path d="M81.0217 37.186H13.6057C6.14522 37.186 0 43.437 0 51.0862V104.199C0 111.838 6.09987 118.099 13.6057 118.099H81.067C88.5275 118.099 94.6727 111.838 94.6727 104.199V51.0862C94.582 43.437 88.4368 37.186 81.0217 37.186Z" fill="#45AADB"/>
</g>
<g style="mix-blend-mode:multiply" opacity="0.94">
<path d="M58.0596 69.6466C58.0596 64.141 53.6998 59.6812 48.3115 59.6812C42.9231 59.6812 38.5634 64.141 38.5634 69.6466C38.5042 71.4524 38.9951 73.2394 39.9853 74.8235C40.9756 76.4075 42.4295 77.7314 44.1972 78.6585V92.5506C44.1774 93.0794 44.3914 93.5943 44.7943 93.9879C45.1973 94.3815 45.7581 94.6232 46.3595 94.6626H49.7725C50.3761 94.6207 50.9375 94.3749 51.3386 93.9772C51.7397 93.5794 51.9493 93.0607 51.9232 92.5301V78.8841C53.8326 78.0061 55.4212 76.6737 56.5066 75.0397C57.592 73.4058 58.1302 71.5366 58.0596 69.6466Z" fill="#4E4E98"/>
</g>
</g>
</svg>
