<svg width="60" height="60" viewBox="0 0 60 60" fill="none" xmlns="http://www.w3.org/2000/svg">
<g filter="url(#filter0_d)">
<path d="M56 28C56 42.3594 44.3594 54 30 54C15.6406 54 4 42.3594 4 28C4 13.6406 15.6406 2 30 2C44.3594 2 56 13.6406 56 28Z" fill="#45AADB"/>
</g>
<path d="M19 22C19 19.2386 21.2386 17 24 17H35C37.7614 17 40 19.2386 40 22V33C40 35.7614 37.7614 38 35 38H24C21.2386 38 19 35.7614 19 33V22Z" fill="white"/>
<defs>
<filter id="filter0_d" x="0" y="0" width="60" height="60" filterUnits="userSpaceOnUse" color-interpolation-filters="sRGB">
<feFlood flood-opacity="0" result="BackgroundImageFix"/>
<feColorMatrix in="SourceAlpha" type="matrix" values="0 0 0 0 0 0 0 0 0 0 0 0 0 0 0 0 0 0 127 0"/>
<feOffset dy="2"/>
<feGaussianBlur stdDeviation="2"/>
<feColorMatrix type="matrix" values="0 0 0 0 0 0 0 0 0 0 0 0 0 0 0 0 0 0 0.25 0"/>
<feBlend mode="normal" in2="BackgroundImageFix" result="effect1_dropShadow"/>
<feBlend mode="normal" in="SourceGraphic" in2="effect1_dropShadow" result="shape"/>
</filter>
</defs>
</svg>
