<svg xmlns="http://www.w3.org/2000/svg" xmlns:xlink="http://www.w3.org/1999/xlink" viewBox="0 0 141.76 118.05"><defs><style>.cls-1{fill:none;}.cls-2{isolation:isolate;}.cls-3{clip-path:url(#clip-path);}.cls-4{mix-blend-mode:multiply;}.cls-5{clip-path:url(#clip-path-2);}.cls-6{fill:#45aadb;}.cls-7{clip-path:url(#clip-path-4);}.cls-8{fill:#4e4e98;}.cls-9{clip-path:url(#clip-path-5);}</style><clipPath id="clip-path" transform="translate(-0.99 -2.04)"><rect class="cls-1" x="-34.1" y="-50.72" width="211.18" height="211.18"/></clipPath><clipPath id="clip-path-2" transform="translate(-0.99 -2.04)"><rect class="cls-1" x="6.69" y="2.04" width="130.45" height="108.73"/></clipPath><clipPath id="clip-path-4" transform="translate(-0.99 -2.04)"><rect class="cls-1" x="0.99" y="96.04" width="56.34" height="24.04"/></clipPath><clipPath id="clip-path-5" transform="translate(-0.99 -2.04)"><rect class="cls-1" x="86.41" y="96.04" width="56.34" height="24.04"/></clipPath></defs><title>Toezicht betur</title><g class="cls-2"><g id="Laag_1" data-name="Laag 1"><g class="cls-3"><g class="cls-4"><g class="cls-5"><g class="cls-5"><path class="cls-6" d="M122.08,22.64a5.42,5.42,0,0,0-5.3-4.3H115.4V2H88.21V18.33s0,0,0,0H82.78V29.22H61V18.34H55.61s0,0,0,0V2H28.41v16.3H27a5.42,5.42,0,0,0-5.3,4.3l-15,71.24,0,16.88H53.31V71.17A9.7,9.7,0,0,1,53.57,69a10.41,10.41,0,0,1,.51-1.55H89.73a9.76,9.76,0,0,1,.76,3.77v39.6h46.65V94.45Z" transform="translate(-0.99 -2.04)"/></g></g></g></g><g class="cls-4"><g class="cls-7"><rect class="cls-8" y="94.01" width="56.34" height="24.04"/></g></g><g class="cls-4"><g class="cls-9"><rect class="cls-8" x="85.42" y="94.01" width="56.34" height="24.04"/></g></g></g></g></svg>