<svg width="125" height="101" viewBox="0 0 125 101" fill="none" xmlns="http://www.w3.org/2000/svg">
<g clip-path="url(#clip0)">
<path d="M81.7998 89.5601H41.8398V100.53H81.7998V89.5601Z" fill="#3299CC"/>
<path opacity="0.99" d="M66.7797 67.6699H57.2697L50.6797 88.5099H73.0997L66.7797 67.6699Z" fill="#3299CC"/>
<path d="M1 65.791C1.62 73.711 9.83 80.001 19.88 80.001C29.93 80.001 38.14 73.731 38.76 65.811L1 65.791Z" fill="#3299CC"/>
<path d="M86.7383 65.791C87.3583 73.711 95.5583 80.001 105.618 80.001C115.678 80.001 123.868 73.731 124.498 65.811L86.7383 65.791Z" fill="#3299CC"/>
<path d="M7.99974 26.1599C7.78974 26.9299 8.43974 28.0599 9.27974 29.0199C15.5397 36.2099 35.4097 29.6199 38.5697 28.4899C46.1027 25.76 53.0392 21.6043 58.9997 16.2499V6.85986C58.5497 7.21986 57.8797 7.76986 57.0497 8.41986C51.6297 12.7199 42.3297 19.7599 37.7497 22.4199C33.9197 24.5299 24.9997 29.6999 9.34974 25.8199C9.05291 25.7088 8.73611 25.6611 8.41974 25.6799C8.31797 25.7229 8.22729 25.7884 8.15454 25.8716C8.08179 25.9547 8.02886 26.0533 7.99974 26.1599Z" fill="#3299CC"/>
<g style="mix-blend-mode:multiply">
<path d="M4.0498 66.5103L19.4798 31.7803" stroke="#564BAA" stroke-width="3.1" stroke-miterlimit="10" stroke-linecap="round"/>
</g>
<g style="mix-blend-mode:multiply">
<path d="M35.7105 66.2603L19.4805 31.7803" stroke="#564BAA" stroke-width="3.1" stroke-miterlimit="10" stroke-linecap="round"/>
</g>
<path d="M116.6 26.1599C116.8 26.9299 116.15 28.0599 115.32 29.0199C109.06 36.2099 89.1803 29.6199 86.0303 28.4899C78.5022 25.7561 71.5697 21.6007 65.6104 16.2499V6.85986L67.6104 8.41986C73.0304 12.7199 82.3304 19.7599 86.9104 22.4199C90.6804 24.5799 99.6204 29.7499 115.26 25.8699C115.554 25.7587 115.867 25.711 116.18 25.7299C116.275 25.7702 116.361 25.829 116.433 25.9028C116.506 25.9766 116.562 26.064 116.6 26.1599Z" fill="#3299CC"/>
<g style="mix-blend-mode:multiply">
<path d="M89.5195 66.6302L104.95 30.7603" stroke="#564BAA" stroke-width="3.15" stroke-miterlimit="10" stroke-linecap="round"/>
</g>
<g style="mix-blend-mode:multiply">
<path d="M121.17 66.3703L104.95 30.7603" stroke="#564BAA" stroke-width="3.15" stroke-miterlimit="10" stroke-linecap="round"/>
</g>
<path d="M65.6304 6.85986H58.9404V16.1999H65.6304V6.85986Z" fill="#3299CC"/>
<g style="mix-blend-mode:multiply">
<path d="M65.6902 3.43008C65.6902 2.5416 65.3372 1.68952 64.709 1.06127C64.0807 0.433024 63.2287 0.0800781 62.3402 0.0800781C61.4517 0.0800781 60.5996 0.433024 59.9714 1.06127C59.3431 1.68952 58.9902 2.5416 58.9902 3.43008C58.9798 3.56321 58.9798 3.69695 58.9902 3.83008V66.9101H65.6302V3.83008C65.6606 3.69852 65.6807 3.56478 65.6902 3.43008Z" fill="#564BAA"/>
</g>
</g>
<defs>
<clipPath id="clip0">
<rect width="124.5" height="100.53" fill="white"/>
</clipPath>
</defs>
</svg>
