<svg xmlns="http://www.w3.org/2000/svg" xmlns:xlink="http://www.w3.org/1999/xlink" viewBox="0 0 142.15 137.8"><defs><style>.cls-1{fill:none;}.cls-2{isolation:isolate;}.cls-3{mix-blend-mode:multiply;}.cls-4{clip-path:url(#clip-path);}.cls-5{clip-path:url(#clip-path-2);}.cls-6{fill:#4e4e98;}.cls-7{clip-path:url(#clip-path-3);}.cls-8{clip-path:url(#clip-path-5);}.cls-9{fill:#45aadb;}.cls-10{clip-path:url(#clip-path-7);}</style><clipPath id="clip-path" transform="translate(-1.28 -1.28)"><rect class="cls-1" x="56.06" y="24.51" width="72.81" height="114.56"/></clipPath><clipPath id="clip-path-2" transform="translate(-1.28 -1.28)"><rect class="cls-1" x="56.06" y="24.52" width="72.81" height="114.56"/></clipPath><clipPath id="clip-path-3" transform="translate(-1.28 -1.28)"><rect class="cls-1" x="17.39" y="1.28" width="72.71" height="114.66"/></clipPath><clipPath id="clip-path-5" transform="translate(-1.28 -1.28)"><rect class="cls-1" x="90.63" y="21.09" width="52.8" height="52.8"/></clipPath><clipPath id="clip-path-7" transform="translate(-1.28 -1.28)"><rect class="cls-1" x="1.28" y="67.34" width="52.8" height="52.8"/></clipPath></defs><title>Witwassen</title><g class="cls-2"><g id="Laag_1" data-name="Laag 1"><g class="cls-3"><g class="cls-4"><g class="cls-5"><path class="cls-6" d="M104.32,24.77l-4.22,6a.6.6,0,0,0-.1.45.56.56,0,0,0,.24.38,47.63,47.63,0,0,1,8,7.06l.85,1a47.2,47.2,0,0,1-37.14,77.77l8.36-7.13a.59.59,0,0,0,.21-.41.66.66,0,0,0-.14-.44l-4.77-5.6a.61.61,0,0,0-.85-.07L56.27,119.5a.6.6,0,0,0-.07.84l2.38,2.81,10,11.78.07.08,3.28,3.86a.61.61,0,0,0,.85.07l5.61-4.76a.55.55,0,0,0,.21-.41.65.65,0,0,0-.14-.44L72.2,126a55.6,55.6,0,0,0,13.87-1.5A55.86,55.86,0,0,0,123,95.28c.44-.89.88-1.82,1.28-2.73a55.69,55.69,0,0,0-8.67-58.43c-.33-.39-.67-.77-1-1.15a56,56,0,0,0-9.4-8.35.62.62,0,0,0-.84.15Z" transform="translate(-1.28 -1.28)"/></g></g></g><g class="cls-3"><g class="cls-7"><g class="cls-7"><path class="cls-6" d="M74,1.28a.61.61,0,0,0-.44.14L67.91,6.17a.59.59,0,0,0-.21.4.63.63,0,0,0,.14.44l6.35,7.52A55.81,55.81,0,0,0,23.31,45.24c-.45.89-.88,1.81-1.28,2.73A55.93,55.93,0,0,0,20,87.05a56.1,56.1,0,0,0,21,28.77.65.65,0,0,0,.45.11.64.64,0,0,0,.39-.25l4.24-6a.59.59,0,0,0-.15-.84A47.18,47.18,0,0,1,74.08,23.1l-8.08,7a.59.59,0,0,0-.07.85l4.8,5.58a.59.59,0,0,0,.85.06L89.9,20.79a.69.69,0,0,0,.16-.22.61.61,0,0,0-.09-.63L74.38,1.5A.62.62,0,0,0,74,1.28" transform="translate(-1.28 -1.28)"/></g></g></g><g class="cls-3"><g class="cls-8"><g class="cls-8"><path class="cls-9" d="M143.43,47.49A26.4,26.4,0,1,1,117,21.09a26.4,26.4,0,0,1,26.4,26.4" transform="translate(-1.28 -1.28)"/></g></g></g><g class="cls-3"><g class="cls-10"><g class="cls-10"><path class="cls-9" d="M54.08,93.74a26.4,26.4,0,1,1-26.4-26.4,26.4,26.4,0,0,1,26.4,26.4" transform="translate(-1.28 -1.28)"/></g></g></g></g></g></svg>