<svg width="198" height="155" viewBox="0 0 198 155" fill="none" xmlns="http://www.w3.org/2000/svg">
<g style="mix-blend-mode:multiply">
<path d="M146.743 28.4411C137.175 26.5769 127.337 26.7323 117.83 28.8978L117.404 29.1758C117.007 28.3319 116.435 27.2397 115.825 25.9588C114.518 23.3872 113.405 21.4709 112.388 19.7532C111.371 18.0354 110.568 16.6454 109.483 14.9475C107.914 12.3755 106.136 9.9441 104.167 7.67945C103.017 6.3333 101.754 5.09397 100.391 3.97591C99.1229 2.87708 97.7317 1.93712 96.2467 1.17592C93.1402 -0.132639 89.7 -0.355957 86.4573 0.540463C82.5842 1.53337 79.9892 3.65818 77.7428 5.50499C76.6083 6.46698 75.5466 7.51585 74.5668 8.64257C73.7251 10.0113 72.5973 11.1712 71.2649 12.0383C68.8012 13.5189 65.8919 14.0173 63.0926 13.4383C62.4 13.3203 61.7193 13.1375 61.0592 12.8922C56.3411 10.9901 51.1607 10.6499 46.2444 11.9192C45.0307 12.2658 43.8456 12.7107 42.7005 13.2496C36.4164 16.3972 33.405 32.1148 35.3706 51.7644L35.4674 52.2907C29.4931 55.1774 23.6749 58.3924 18.0383 61.9218C11.921 65.9962 6.47283 71.04 1.89697 76.8651C1.07393 77.9175 -0.426916 79.9828 0.115324 81.9984C0.657564 84.014 3.06859 85.0367 4.63722 85.6523C13.4486 89.0877 17.8543 90.8054 19.8393 91.1232C27.7583 92.3547 35.7692 92.8531 43.7753 92.6125C54.0895 92.2807 64.3623 91.1188 74.499 89.1374C83.156 87.4612 91.693 85.1889 100.052 82.336C111.967 78.075 123.447 72.6312 134.329 66.0821C134.329 66.0821 143.906 60.3729 158.265 46.512C159.933 44.9401 161.254 43.0206 162.139 40.8822C162.703 39.6327 163.031 38.2852 163.107 36.9106C162.768 31.6482 148.97 28.8978 146.743 28.4411ZM115.39 50.9701C110.134 54.1647 104.659 56.9621 99.0063 59.3403C90.3518 62.9143 81.365 65.5758 72.1848 67.2835C65.8619 68.5644 60.4686 69.2693 56.4889 69.6864H47.1353L46.0702 52.807C67.891 52.2864 89.2549 46.2897 108.292 35.3418L108.989 34.9248L116.6 49.3616L115.39 50.9701Z" fill="#45AADB"/>
</g>
<g style="mix-blend-mode:multiply">
<path d="M183.703 75.2539L137.966 60.8284L138.03 60.8095L87.0053 44.42L84.5751 51.9636L70.3017 96.4136L68.6587 100.913L68.8375 100.974L77.2031 103.459L165.863 130.476L183.703 75.2539ZM146.016 116.146L93.7669 99.8019C94.5629 97.8668 94.8697 95.7525 94.6594 93.6516C94.4491 91.5506 93.7284 89.5297 92.5629 87.7728C92.5365 87.724 92.5062 87.6776 92.4723 87.634C92.4585 87.5864 92.442 87.5293 92.4282 87.4817C90.3095 84.3722 87.0155 82.1707 84.1825 81.8368L88.6497 67.9261C90.0807 68.7297 91.6506 69.2353 93.2672 69.4132C94.8839 69.591 96.5147 69.4376 98.0639 68.9618C102.945 67.5467 106.256 63.4922 106.534 59.2132L123.394 64.7642L125.052 65.3149L159.158 76.2945C158.627 78.0703 158.451 79.9417 158.641 81.7979C159.562 89.9689 167.718 94.2989 168.662 94.7783L164.516 106.605C163.115 106.148 161.652 105.934 160.188 105.972C151.777 106.213 146.689 114.961 146.016 116.146Z" fill="#4E4E98"/>
</g>
<path d="M127.023 69.6538C117.078 69.8814 109.166 77.4829 109.375 86.6249C109.584 95.7669 117.815 103.009 127.761 102.781C137.706 102.554 145.607 94.9524 145.398 85.8003C145.188 76.6483 136.969 69.4261 127.023 69.6538ZM127.762 95.5527C125.925 95.5196 124.14 94.9644 122.628 93.956C121.115 92.9476 119.943 91.5305 119.256 89.8808C118.568 88.231 118.397 86.4213 118.762 84.6764C119.127 82.9315 120.014 81.3283 121.311 80.0659C122.608 78.8036 124.258 77.9378 126.058 77.576C127.857 77.2142 129.725 77.3724 131.431 78.0309C133.137 78.6894 134.604 79.8192 135.652 81.28C136.699 82.7408 137.28 84.4682 137.323 86.2477C137.316 88.7052 136.307 91.062 134.517 92.8049C132.726 94.5477 130.298 95.5354 127.762 95.5527Z" fill="#4E4E98"/>
</svg>
